<?xml version="1.0" encoding="utf-8"?>
<!-- Generator: Adobe Illustrator 23.0.3, SVG Export Plug-In . SVG Version: 6.00 Build 0)  -->
<svg version="1.1" xmlns="http://www.w3.org/2000/svg" xmlns:xlink="http://www.w3.org/1999/xlink" x="0px" y="0px"
	 viewBox="0 0 50 50" style="enable-background:new 0 0 50 50;" xml:space="preserve">
<style type="text/css">
	.icon-wheel{fill:#113E83;}
</style>
<title>Financial_Ret</title>
<path class="icon-wheel" d="M43,30.2c0-0.8,0-1.7,0-2.5l0.1-0.8c0.1-1.5,0.5-2.9,1.4-4.1c0.4-0.4,0.9-0.7,1.5-0.7c1.7,0,2.5,2.4,2.9,4.8
	l0.1,0.8c0.1,0.8,0.2,1.6,0.2,2.4c-1,0.2-2.1,0.3-3.1,0.4C45,30.5,44,30.4,43,30.2z M38.3,30.5c-1.2,0-2.5-0.1-3.7-0.4
	c0-0.5,0-1.4,0-2.4l0.1-0.8c0.2-1.9,0.6-4.1,1.7-5.3c0.5-0.5,1.1-0.8,1.8-0.8c2.1,0.1,3.1,3.3,3.5,6.1l0.1,0.8
	c0.1,0.9,0.2,1.8,0.2,2.5c-1.2,0.2-2.4,0.3-3.6,0.3L38.3,30.5z M29.5,30.7c-1.5,0.1-2.9-0.1-4.3-0.5c0-0.4,0-1.3,0-2.5v-0.8
	c0.2-2.3,0.7-5.2,2-6.6c0.5-0.6,1.3-1,2.2-0.9c2.7,0.1,3.7,4.3,4.1,7.6l0.1,0.8c0.1,1.1,0.1,2,0.2,2.5c-1.3,0.3-2.7,0.5-4.1,0.5
	L29.5,30.7z M19.9,30.7h-0.2c-1.4,0-2.7-0.2-4.1-0.5c0-0.7,0.1-1.5,0.1-2.5l0.1-0.8c0.5-3.4,1.6-7.5,4.2-7.6c0.8,0,1.6,0.3,2.1,0.9
	c1.3,1.5,1.8,4.3,2,6.6v0.8c0.1,1.1,0,2,0,2.5C22.7,30.6,21.3,30.7,19.9,30.7z M11.1,30.5h-0.1c-1.2,0-2.4-0.1-3.6-0.3
	c0-0.7,0.1-1.6,0.2-2.5c0,0,0.1-1,0.1-1c0.4-2.8,1.7-5.8,3.7-5.9c0.6,0,1.2,0.3,1.5,0.8c1.1,1.2,1.5,3.4,1.7,5.3l0.1,0.8
	c0.1,1.1,0.1,2,0,2.4C13.5,30.3,12.3,30.4,11.1,30.5L11.1,30.5z M4,30.4c-1.1,0-2.1-0.1-3.1-0.3c0-0.8,0.1-1.6,0.2-2.4l0.1-0.8
	c0.4-2.3,1.3-4.8,2.9-4.8c0.6,0,1.1,0.2,1.5,0.7c0.8,1.2,1.3,2.6,1.4,4.1L7,27.7c-0.1,0.9-0.3,1.7-0.6,2.5C5.6,30.4,4.8,30.5,4,30.4
	z M49.7,26.9c-0.4-2.6-1.4-5.6-3.8-5.6c-0.8,0-1.5,0.3-2,0.9c-0.8,1-1.3,2.3-1.5,3.6C41.9,23,40.8,20,38.3,20
	c-0.9,0-1.8,0.4-2.5,1.1c-1,1.3-1.6,2.8-1.7,4.3c-0.6-3.3-1.8-6.8-4.7-6.9c-1.1,0-2.1,0.4-2.8,1.2c-1.1,1.5-1.8,3.2-2,5
	c-0.2-1.8-0.8-3.6-1.9-5c-0.7-0.8-1.6-1.2-2.7-1.2c-3,0.1-4.2,3.7-4.8,6.9c-0.2-1.6-0.8-3.1-1.7-4.3c-0.5-0.7-1.3-1.1-2.1-1.1
	C8.8,20,8.2,23,7.6,25.8c-0.4-1.4-1.1-2.6-2.1-3.6C5,21.6,4.9,21.2,4,21.2c-2.3,0-3.3,3-3.7,5.6c0,0-0.3,3.5-0.3,3.6
	c0,0.2,0.1,0.3,0.3,0.4c1.2,0.3,2.4,0.4,3.6,0.4c0.1,0-0.3,0-0.2,0c1.1,0,2.1-0.1,3.2-0.4c1.3,0.3,2.7,0.4,4,0.4
	c1.4,0,2.8-0.1,4.2-0.4c1.5,0.4,3,0.7,4.6,0.7h0.2c1.6,0.1,3.3-0.1,4.8-0.7c1.6,0.5,3.2,0.7,4.8,0.7h0.2c1.5,0,3.1-0.2,4.6-0.6
	c1.3,0.3,2.7,0.4,4,0.4c1.4,0,2.8-0.1,4.2-0.4c1,0.3,2.1,0.4,3.2,0.4h0.4h0.8c0.9,0,1.9-0.2,2.8-0.4c0.2-0.1,0.3-0.3,0.3-0.5
	c0-0.9-0.1-1.8-0.2-2.8L49.7,26.9z"/>
</svg>
